<?xml version="1.0" encoding="UTF-8"?>
<svg id="Layer_1" xmlns="http://www.w3.org/2000/svg" width="140" height="44" xmlns:xlink="http://www.w3.org/1999/xlink" version="1.1" viewBox="0 0 140 44">
  <!-- Generator: Adobe Illustrator 29.5.1, SVG Export Plug-In . SVG Version: 2.1.0 Build 141)  -->
  <defs>
    <linearGradient id="linear-gradient" x1="37.0305797" y1="42.6595699" x2="37.0305797" y2="11.566291" gradientUnits="userSpaceOnUse">
      <stop offset="0" stop-color="#734198"/>
      <stop offset="1" stop-color="#d0a458"/>
    </linearGradient>
    <linearGradient id="linear-gradient1" x1="15.4687885" x2="15.4687885" y2="11.566291" xlink:href="#linear-gradient"/>
    <linearGradient id="linear-gradient2" x1="27.577021" y1="42.6595699" x2="27.577021" y2="11.566291" xlink:href="#linear-gradient"/>
  </defs>
  <path d="M77.814568,14.3665463c0,2.6927458-.527939,5.0415183-1.5838171,7.0480289s-2.5498514,3.5406997-4.4827757,4.6025674c-1.9329243,1.0627233-4.1456477,1.5932293-6.6398816,1.5932293h-10.5579251V1.5120436h9.4464295c4.3954989,0,7.7975826,1.108073,10.2053953,3.3250747,2.4086684,2.216146,3.6125748,5.3931925,3.6125748,9.529428ZM72.3127073,14.3665463c0-2.8031253-.7281623-4.9422624-2.1853425-6.418267-1.4571802-1.475149-3.5381328-2.2127234-6.2420021-2.2127234h-3.8709825v17.6513038h4.6299484c2.3462056,0,4.2106775-.8085938,5.5942714-2.4257815,1.3827382-1.6180433,2.0741073-3.8162206,2.0741073-6.5945319Z" fill="#4d4d4e"/>
  <path d="M128.7182177,23.3942529c3.1976392,0,5.4193055-1.6050439,6.6649988-4.8151317l4.6167835,1.7428088c-.9942309,2.443252-2.452381,4.2607526-4.3744501,5.4525018-1.9220691,1.1917493-4.2250665,1.7876239-6.9073322,1.7876239-4.0723632,0-7.219378-1.1527435-9.4410442-3.4582306-2.2216663-2.3054871-3.3329144-5.5305133-3.3329144-9.6742487,0-4.156184,1.0722424-7.3480139,3.2158972-9.5754895,2.1436548-2.2274756,5.2516638-3.3420434,9.3240271-3.3420434,2.9702441,0,5.3894287.5967045,7.2583837,1.7876239,1.8681251,1.1917493,3.1793812,2.9436871,3.9337684,5.2549835l-4.6707276,1.2755701c-.3950367-1.2689308-1.1710015-2.2781001-2.3262348-3.0266779-1.1560632-.7485779-2.5187737-1.1228668-4.0873016-1.1228668-2.3951172,0-4.2126178.7427685-5.4525018,2.2274756s-1.8589961,3.6590686-1.8589961,6.5214245c0,2.9104907.6373701,5.132157,1.9129401,6.6649988,1.2755701,1.5328418,3.117138,2.2996777,5.5247039,2.2996777Z" fill="#4d4d4e"/>
  <path d="M60.9608353,40.2367662c0,.7292588-.2703894,1.2867719-.8111683,1.6725392s-1.3343323.578651-2.3806601.578651c-.9547301,0-1.7033654-.1691035-2.2459058-.5073105s-.8913163-.850802-1.0463279-1.5377849l1.506078-.2483708c.1021667.3945748.3012156.6808177.5971467.8587287s.7063594.2668665,1.2312848.2668665c1.0886037,0,1.6329056-.331161,1.6329056-.993483,0-.2113794-.0625331-.3857673-.1875992-.5231639s-.3012156-.2518937-.5284484-.3434915-.6632028-.2025719-1.3079098-.3329225c-.5566323-.1303506-.9441612-.2351595-1.1625865-.3144268s-.4157128-.1726265-.5918622-.2800777-.3258765-.236921-.4491812-.3884096-.2193061-.3293995-.2880044-.5337329-.1030474-.4386122-.1030474-.7028364c0-.672891.2527745-1.1881282.7583235-1.5457116s1.240973-.5363751,2.2062721-.5363751c.9230232,0,1.6161714.1444426,2.0794445.4333277s.7618465.7662502.8957201,1.4320952l-1.5113625.2060949c-.0775058-.320592-.2351595-.5619168-.4729613-.7239743s-.578651-.2430863-1.0225477-.2430863c-.9441612,0-1.4162418.2959311-1.4162418.8877933,0,.1937644.0502026.3522989.1506078.4756036s.2492515.2281136.4465389.3144268.5971467.1946452,1.1995779.3249958c.7151669.1514885,1.2268811.2915274,1.5351427.4201165s.5522286.2783162.7319011.4491812.3170691.3751984.4121898.6130002.1426811.5117142.1426811.8217373Z" fill="#4d4d4e"/>
  <path d="M71.8471689,39.4335246v3.0544318h-1.5536383v-3.0544318l-2.6528111-4.3914063h1.6329056l1.7861556,3.1495526,1.8072936-3.1495526h1.6329056l-2.6528111,4.3914063Z" fill="#4d4d4e"/>
  <path d="M87.2887279,40.2367662c0,.7292588-.2703894,1.2867719-.8111683,1.6725392s-1.3343323.578651-2.3806601.578651c-.9547301,0-1.7033654-.1691035-2.2459058-.5073105s-.8913163-.850802-1.0463279-1.5377849l1.506078-.2483708c.1021667.3945748.3012156.6808177.5971467.8587287s.7063594.2668665,1.2312848.2668665c1.0886037,0,1.6329056-.331161,1.6329056-.993483,0-.2113794-.0625331-.3857673-.1875992-.5231639s-.3012156-.2518937-.5284484-.3434915-.6632028-.2025719-1.3079098-.3329225c-.5566323-.1303506-.9441612-.2351595-1.1625865-.3144268s-.4157128-.1726265-.5918622-.2800777-.3258765-.236921-.4491812-.3884096-.2193061-.3293995-.2880044-.5337329-.1030474-.4386122-.1030474-.7028364c0-.672891.2527745-1.1881282.7583235-1.5457116s1.240973-.5363751,2.2062721-.5363751c.9230232,0,1.6161714.1444426,2.0794445.4333277s.7618465.7662502.8957201,1.4320952l-1.5113625.2060949c-.0775058-.320592-.2351595-.5619168-.4729613-.7239743s-.578651-.2430863-1.0225477-.2430863c-.9441612,0-1.4162418.2959311-1.4162418.8877933,0,.1937644.0502026.3522989.1506078.4756036s.2492515.2281136.4465389.3144268.5971467.1946452,1.1995779.3249958c.7151669.1514885,1.2268811.2915274,1.5351427.4201165s.5522286.2783162.7319011.4491812.3170691.3751984.4121898.6130002.1426811.5117142.1426811.8217373Z" fill="#4d4d4e"/>
  <path d="M97.9319752,36.2469806v6.2409758h-1.5589228v-6.2409758h-2.4044403v-1.2048624h6.3730879v1.2048624h-2.4097248Z" fill="#4d4d4e"/>
  <path d="M107.1325583,42.4879564v-7.4458382h6.0718723v1.2048624h-4.5129495v1.8707074h3.0713253v1.2048624h-3.0713253v1.9605436h4.5129495v1.2048624h-6.0718723Z" fill="#4d4d4e"/>
  <path d="M126.4793511,42.4879564v-4.5129495c0-.1021667.0008807-.2043334.0026422-.3065001s.0184957-.5407789.0502026-1.3158366c-.2501323.9476842-.4350892,1.6082447-.5548708,1.9816816l-1.342259,4.1536046h-1.1097417l-1.342259-4.1536046-.5654398-1.9816816c.0422759.8173336.0634138,1.3581124.0634138,1.6223366v4.5129495h-1.3845349v-7.4458382h2.0873712l1.33169,4.1641735.1162587.4016208.2536552.9987675.3329225-1.1942934,1.3686814-4.3702684h2.0768023v7.4458382h-1.3845349Z" fill="#4d4d4e"/>
  <path d="M139.9445129,40.2367662c0,.7292588-.2703894,1.2867719-.8111683,1.6725392s-1.3343323.578651-2.3806601.578651c-.9547301,0-1.7033654-.1691035-2.2459058-.5073105s-.8913163-.850802-1.0463279-1.5377849l1.506078-.2483708c.1021667.3945748.3012156.6808177.5971467.8587287s.7063594.2668665,1.2312848.2668665c1.0886037,0,1.6329056-.331161,1.6329056-.993483,0-.2113794-.0625331-.3857673-.1875992-.5231639s-.3012156-.2518937-.5284484-.3434915-.6632028-.2025719-1.3079098-.3329225c-.5566323-.1303506-.9441612-.2351595-1.1625865-.3144268s-.4157128-.1726265-.5918622-.2800777-.3258765-.236921-.4491812-.3884096-.2193061-.3293995-.2880044-.5337329-.1030474-.4386122-.1030474-.7028364c0-.672891.2527745-1.1881282.7583235-1.5457116s1.240973-.5363751,2.2062721-.5363751c.9230232,0,1.6161714.1444426,2.0794445.4333277s.7618465.7662502.8957201,1.4320952l-1.5113625.2060949c-.0775058-.320592-.2351595-.5619168-.4729613-.7239743s-.578651-.2430863-1.0225477-.2430863c-.9441612,0-1.4162418.2959311-1.4162418.8877933,0,.1937644.0502026.3522989.1506078.4756036s.2492515.2281136.4465389.3144268.5971467.1946452,1.1995779.3249958c.7151669.1514885,1.2268811.2915274,1.5351427.4201165s.5522286.2783162.7319011.4491812.3170691.3751984.4121898.6130002.1426811.5117142.1426811.8217373Z" fill="#4d4d4e"/>
  <path d="M102.7611513,16.6451548c1.7652379-.4201715,3.1668372-1.2937628,4.2038072-2.620884,1.0379608-1.3271211,1.5565008-2.90498,1.5565008-4.7326409,0-2.5070474-.846178-4.4297189-2.5378735-5.7696659-1.6916955-1.339947-4.0934935-2.0099205-7.2053942-2.0099205h-13.0394647v26.0983058h5.4642667V5.7535027h7.0009507c3.2104342,0,4.816477,1.2535237,4.816477,3.7606261,0,1.2466428-.3953455,2.2161255-1.1859263,2.9075122-.7905809.6922124-1.9508554,1.037025-3.4824751,1.037025h-5.1586474v4.2423399h4.4184893l6.056239,9.9093436h6.1495983l-7.0565479-10.9651946Z" fill="#4d4d4e"/>
  <g>
    <polygon points="38.8013511 27.7385418 36.2738164 32.117606 39.7315978 38.1088922 29.2715163 38.1088922 26.7439815 42.4879564 47.317178 42.4879564 38.8013511 27.7385418" fill="url(#linear-gradient)"/>
    <path d="M23.6600952,1.5120436L0,42.4879564h14.5579942L30.9375769,14.1168008,23.6600952,1.5120436ZM12.0304594,38.1088922h-4.444861L23.6600952,10.270172l2.2194364,3.8466288-13.8490722,23.9920914Z" fill="url(#linear-gradient1)"/>
    <polygon points="37.0305889 24.6726017 34.5030541 29.0516659 32.7322736 25.9857258 32.7203155 25.9647855 23.1785226 42.4879564 18.1234531 42.4879564 32.7203155 17.2066753 35.2598084 21.6066616 37.0305889 24.6726017" fill="url(#linear-gradient2)"/>
  </g>
</svg>